<svg width="164" height="95" viewBox="0 0 164 95" fill="none" xmlns="http://www.w3.org/2000/svg">
<path d="M34.2843 93.036C26.4336 93.036 19.7776 91.7133 14.3163 89.068C8.85492 86.3373 4.20426 82.8387 0.364258 78.572L13.1643 65.644C19.2229 72.4707 26.6896 75.884 35.5643 75.884C40.3429 75.884 43.8843 74.9027 46.1883 72.94C48.4923 70.9773 49.6443 68.3747 49.6443 65.132C49.6443 62.6573 48.9616 60.6093 47.5963 58.988C46.2309 57.2813 43.4576 56.1293 39.2763 55.532L30.4443 54.38C20.9723 53.1853 14.0176 50.3267 9.58026 45.804C5.22826 41.2813 3.05226 35.2653 3.05226 27.756C3.05226 23.7453 3.82026 20.076 5.35626 16.748C6.89226 13.42 9.06826 10.5613 11.8843 8.172C14.7856 5.78266 18.2843 3.948 22.3803 2.668C26.5616 1.30266 31.2976 0.619995 36.5883 0.619995C43.3296 0.619995 49.2603 1.68666 54.3803 3.81999C59.5003 5.95333 63.8949 9.068 67.5643 13.164L54.6363 26.22C52.5029 23.7453 49.9003 21.74 46.8283 20.204C43.8416 18.5827 40.0443 17.772 35.4363 17.772C31.0843 17.772 27.8416 18.54 25.7083 20.076C23.5749 21.612 22.5083 23.7453 22.5083 26.476C22.5083 29.548 23.3189 31.7667 24.9403 33.132C26.6469 34.4973 29.3776 35.4787 33.1323 36.076L41.9643 37.484C51.1803 38.9347 58.0069 41.7933 62.4443 46.06C66.8816 50.2413 69.1003 56.2147 69.1003 63.98C69.1003 68.2467 68.3323 72.172 66.7963 75.756C65.2603 79.34 62.9989 82.412 60.0123 84.972C57.1109 87.532 53.4843 89.5373 49.1323 90.988C44.7803 92.3533 39.8309 93.036 34.2843 93.036Z" fill="#151515"/>
<path d="M48.1113 90.092V2.156L110.917 2.668L108.911 19.436H67.5673V37.74H103.023V54.892H67.5673V74.22H108.911L112.624 91.5L48.1113 90.092Z" fill="#151515"/>
<path d="M124.581 93.036C118.693 93.036 113.317 92.0547 108.453 90.092C103.589 88.1293 99.4506 85.228 96.0373 81.388C92.6239 77.4627 89.9786 72.6413 88.1013 66.924C86.2239 61.1213 85.2853 54.4227 85.2853 46.828C85.2853 39.2333 86.2239 32.5773 88.1013 26.86C89.9786 21.0573 92.6239 16.236 96.0373 12.396C99.4506 8.47066 103.589 5.52666 108.453 3.564C113.317 1.60133 118.693 0.619995 124.581 0.619995C130.469 0.619995 135.845 1.60133 140.709 3.564C145.573 5.52666 149.712 8.47066 153.125 12.396C156.539 16.236 159.184 21.0573 161.061 26.86C162.939 32.5773 163.877 39.2333 163.877 46.828C163.877 54.4227 162.939 61.1213 161.061 66.924C159.184 72.6413 156.539 77.4627 153.125 81.388C149.712 85.228 145.573 88.1293 140.709 90.092C135.845 92.0547 130.469 93.036 124.581 93.036ZM124.581 75.756C130.469 75.756 135.035 73.836 138.277 69.996C141.605 66.156 143.269 60.652 143.269 53.484V40.172C143.269 33.004 141.605 27.5 138.277 23.66C135.035 19.82 130.469 17.9 124.581 17.9C118.693 17.9 114.085 19.82 110.757 23.66C107.515 27.5 105.893 33.004 105.893 40.172V53.484C105.893 60.652 107.515 66.156 110.757 69.996C114.085 73.836 118.693 75.756 124.581 75.756Z" fill="#151515"/>
<path d="M137.5 89.5L163 95L163.5 49L137.5 89.5Z" fill="#151515"/>
</svg>
